<svg xmlns="http://www.w3.org/2000/svg" xmlns:xlink="http://www.w3.org/1999/xlink" version="1.1" width="400" height="200" viewBox="0 0 400 200" xml:space="preserve">
<desc>Created with Fabric.js 3.5.0</desc>
<defs>
</defs>
<rect x="0" y="0" width="100%" height="100%" fill="#f0f4f8"/>
<g transform="matrix(1 0 0 1 50.1613 95.3333)" style="" id="89129">
		
<path xml:space="preserve" font-family="Leckerli One" font-size="50" font-style="normal" font-weight="normal" style="stroke: none; stroke-width: 0; stroke-dasharray: none; stroke-linecap: butt; stroke-dashoffset: 0; stroke-linejoin: miter; stroke-miterlimit: 4; is-custom-font: none; font-file-url: none; fill: rgb(0,0,0); fill-rule: nonzero; opacity: 1; white-space: pre;" d="M-15.44 13.51L-15.44 13.51Q-15.44 16.46-21.19 16.46L-21.19 16.46Q-22.44 16.46-22.67 15.18Q-22.89 13.91-22.89 12.01Q-22.89 10.11-22.62 7.93Q-22.34 5.76-21.89 3.21L-21.89 3.21Q-21.04-1.69-19.47-7.37Q-17.89-13.04-16.34-16.14L-16.34-16.14Q-19.49-15.94-22.59-15.02Q-25.69-14.09-26.99-13.72Q-28.29-13.34-29.14-13.34Q-29.99-13.34-29.99-13.89L-29.99-13.89Q-29.99-14.54-28.99-15.82Q-27.99-17.09-26.14-18.39L-26.14-18.39Q-21.44-21.59-15.69-21.64L-15.69-21.64L0.76-21.49Q2.11-21.49 2.11-20.44L2.11-20.44Q2.11-20.14 1.71-19.37Q1.31-18.59 1.01-17.69L1.01-17.69Q0.36-15.89-1.72-15.89Q-3.79-15.89-11.59-16.19L-11.59-16.19Q-11.79-13.99-12.39-10.57Q-12.99-7.14-13.69-3.09L-13.69-3.09Q-15.39 7.26-15.44 13.51Z"/></g>
<g transform="matrix(1 0 0 1 248.8334 89.4766)" style="" id="619979">
		
<path xml:space="preserve" font-family="Leckerli One" font-size="50" font-style="normal" font-weight="normal" style="stroke: none; stroke-width: 0; stroke-dasharray: none; stroke-linecap: butt; stroke-dashoffset: 0; stroke-linejoin: miter; stroke-miterlimit: 4; is-custom-font: none; font-file-url: none; fill: rgb(32,156,238); fill-rule: nonzero; opacity: 1; white-space: pre;" d="M-77.25 13.51L-77.25 13.51Q-77.25 16.46-83 16.46L-83 16.46Q-84.25 16.46-84.47 15.18Q-84.70 13.91-84.70 12.01Q-84.70 10.11-84.42 7.93Q-84.15 5.76-83.70 3.21L-83.70 3.21Q-82.85-1.69-81.27-7.37Q-79.70-13.04-78.15-16.14L-78.15-16.14Q-81.30-15.94-84.40-15.02Q-87.50-14.09-88.80-13.72Q-90.10-13.34-90.95-13.34Q-91.80-13.34-91.80-13.89L-91.80-13.89Q-91.80-14.54-90.80-15.82Q-89.80-17.09-87.95-18.39L-87.95-18.39Q-83.25-21.59-77.50-21.64L-77.50-21.64L-61.05-21.49Q-59.70-21.49-59.70-20.44L-59.70-20.44Q-59.70-20.14-60.10-19.37Q-60.50-18.59-60.80-17.69L-60.80-17.69Q-61.45-15.89-63.52-15.89Q-65.60-15.89-73.40-16.19L-73.40-16.19Q-73.60-13.99-74.20-10.57Q-74.80-7.14-75.50-3.09L-75.50-3.09Q-77.20 7.26-77.25 13.51ZM-50.75 12.06L-50.75 12.06Q-53.25 15.51-57.45 15.51L-57.45 15.51Q-60.85 15.51-62.87 14.08Q-64.90 12.66-64.90 9.56L-64.90 9.56Q-64.90 8.26-64.52 7.16Q-64.15 6.06-63.30 4.46L-63.30 4.46L-61.85-7.39Q-60.30-8.59-57.65-8.59L-57.65-8.59Q-55.40-8.59-55.10-5.59L-55.10-5.59Q-55.00-4.69-55.00-3.47Q-55.00-2.24-55.40-0.89L-55.40-0.89Q-57.40 6.01-57.35 8.36L-57.35 8.36Q-57.35 10.16-55.25 10.16Q-53.15 10.16-52.15 8.81Q-51.15 7.46-50.45 5.46L-50.45 5.46Q-49.15-0.09-48.02-3.69Q-46.90-7.29-46.60-7.99L-46.60-7.99Q-46.10-9.19-44.70-9.24L-44.70-9.24Q-43.30-9.19-42.05-7.27Q-40.80-5.34-40.80-4.29L-40.80-4.29Q-40.90-0.79-45.15 13.36L-45.15 13.36Q-41.90 10.81-38.70 7.11L-38.70 7.11Q-37.60 5.81-36.85 4.93Q-36.10 4.06-35.65 4.06L-35.65 4.06Q-34.95 4.06-34.95 5.66L-34.95 5.66Q-34.95 8.81-38.47 13.01Q-42.00 17.21-47.10 19.56L-47.10 19.56Q-47.70 21.56-48.40 23.36Q-49.10 25.16-50.20 26.51L-50.20 26.51Q-52.60 29.41-57.50 29.41L-57.50 29.41Q-60.80 29.41-63.12 27.51Q-65.45 25.61-65.45 22.76L-65.45 22.76Q-65.45 21.16-64.37 20.21Q-63.30 19.26-61.42 18.63Q-59.55 18.01-57.05 17.53Q-54.55 17.06-51.70 16.36L-51.70 16.36Q-51.00 13.36-50.75 12.06ZM-57.55 25.56L-57.55 25.56Q-55.20 25.56-53.30 21.46L-53.30 21.46Q-55.10 21.81-56.50 21.98Q-57.90 22.16-58.90 22.31L-58.90 22.31Q-60.90 22.61-60.85 23.36L-60.85 23.36Q-60.85 24.31-59.72 24.96Q-58.60 25.61-57.55 25.56ZM-17.25 11.46L-17.25 11.46Q-21.20 16.11-26.72 16.11Q-32.25 16.11-35.00 13.28Q-37.75 10.46-37.70 6.26L-37.70 6.26Q-37.75 0.31-33.95-3.99Q-30.15-8.29-24.00-8.29L-24.00-8.29Q-21.20-8.29-19.50-7.59L-19.50-7.59Q-16.55-6.39-16.55-5.34L-16.55-5.34Q-16.55-4.54-20.67-4.52Q-24.80-4.49-27.57-1.67Q-30.35 1.16-30.35 5.46L-30.35 5.46Q-30.35 7.71-29.02 9.23Q-27.70 10.76-25.27 10.76Q-22.85 10.76-21.25 9.76L-21.25 9.76Q-24.80 7.36-24.80 2.81L-24.80 2.81Q-24.85 0.41-23.07-1.57Q-21.30-3.54-18.52-3.57Q-15.75-3.59-14.55-2.04Q-13.35-0.49-13.35 1.93Q-13.35 4.36-14.50 7.06L-14.50 7.06L-14.20 7.06Q-12.00 7.01-10.40 5.51L-10.40 5.51Q-9.80 4.91-9.37 4.46Q-8.95 4.01-8.50 4.01L-8.50 4.01Q-7.80 4.01-7.80 5.66L-7.80 5.66Q-7.80 8.71-9.60 10.23Q-11.40 11.76-13.57 11.76Q-15.75 11.76-17.25 11.46ZM-17.70 5.66L-17.70 5.66Q-16.85 3.86-16.85 2.16Q-16.85 0.46-17.95 0.46L-17.95 0.46Q-18.40 0.46-18.70 1.11Q-19.00 1.76-19.00 2.36L-19.00 2.36Q-19.00 4.36-17.70 5.66ZM-0.85-5.24L-0.85-5.24Q1.75-8.19 5.80-8.19L5.80-8.19Q11.60-8.19 13.15-3.49L13.15-3.49Q13.60-2.09 13.60-0.39L13.60-0.39Q13.60 3.41 11.13 7.11Q8.65 10.81 5.15 12.11L5.15 12.11L5.75 12.11Q9.40 12.11 13.15 9.41L13.15 9.41Q15.55 7.71 16.93 5.88Q18.30 4.06 19.00 4.06L19.00 4.06Q19.70 4.06 19.70 5.66L19.70 5.66Q19.70 8.46 17.30 11.31L17.30 11.31Q13.70 15.41 8.10 16.11L8.10 16.11Q4.05 16.56 2.35 16.26Q0.65 15.96-0.25 15.51L-0.25 15.51Q-2.20 14.51-2.20 12.51L-2.20 12.51Q-2.20 11.41-1.75 10.51L-1.75 10.51Q2.20 10.51 4.25 7.51Q6.30 4.51 6.30 0.01L6.30 0.01Q6.30-1.09 5.50-1.97Q4.70-2.84 3.38-2.84Q2.05-2.84 0.50-1.69Q-1.05-0.54-1.97 1.18Q-2.90 2.91-3.65 4.58Q-4.40 6.26-4.85 8.81L-4.85 8.81Q-5.65 13.41-6.67 20.43Q-7.70 27.46-7.95 27.98Q-8.20 28.51-8.70 28.96Q-9.20 29.41-9.75 29.41L-9.75 29.41Q-10.75 29.41-11.40 28.81L-11.40 28.81Q-13.20 27.26-13.50 26.43Q-13.80 25.61-13.80 24.31L-13.80 24.31Q-13.80 19.41-12.15 10.56Q-10.50 1.71-6.45-7.84L-6.45-7.84Q-5.85-9.24-4.32-9.24Q-2.80-9.24-1.40-6.54L-1.40-6.54Q-1.00-5.84-0.85-5.24ZM37.40 11.46L37.40 11.46Q33.45 16.11 27.93 16.11Q22.40 16.11 19.65 13.28Q16.90 10.46 16.95 6.26L16.95 6.26Q16.90 0.31 20.70-3.99Q24.50-8.29 30.65-8.29L30.65-8.29Q33.45-8.29 35.15-7.59L35.15-7.59Q38.10-6.39 38.10-5.34L38.10-5.34Q38.10-4.54 33.98-4.52Q29.85-4.49 27.08-1.67Q24.30 1.16 24.30 5.46L24.30 5.46Q24.30 7.71 25.63 9.23Q26.95 10.76 29.38 10.76Q31.80 10.76 33.40 9.76L33.40 9.76Q29.85 7.36 29.85 2.81L29.85 2.81Q29.80 0.41 31.58-1.57Q33.35-3.54 36.13-3.57Q38.90-3.59 40.10-2.04Q41.30-0.49 41.30 1.93Q41.30 4.36 40.15 7.06L40.15 7.06L40.45 7.06Q42.65 7.01 44.25 5.51L44.25 5.51Q44.85 4.91 45.28 4.46Q45.70 4.01 46.15 4.01L46.15 4.01Q46.85 4.01 46.85 5.66L46.85 5.66Q46.85 8.71 45.05 10.23Q43.25 11.76 41.08 11.76Q38.90 11.76 37.40 11.46ZM36.95 5.66L36.95 5.66Q37.80 3.86 37.80 2.16Q37.80 0.46 36.70 0.46L36.70 0.46Q36.25 0.46 35.95 1.11Q35.65 1.76 35.65 2.36L35.65 2.36Q35.65 4.36 36.95 5.66ZM55.75-8.52Q59.10-8.54 60.75-7.27Q62.40-5.99 62.40-3.62Q62.40-1.24 60.98 0.43Q59.55 2.11 57.50 2.81L57.50 2.81Q58.95 4.31 60.13 5.86Q61.30 7.41 61.30 9.11L61.30 9.11Q61.30 12.46 58.65 14.28Q56.00 16.11 51.28 16.11Q46.55 16.11 44.20 14.23Q41.85 12.36 41.85 9.98Q41.85 7.61 43.03 5.66Q44.20 3.71 45.55 3.71L45.55 3.71Q46.35 3.71 46.70 4.28Q47.05 4.86 48.00 7.61L48.00 7.61Q48.35 8.61 49.15 9.51L49.15 9.51Q51.00 11.56 55.00 11.56L55.00 11.56Q54.40 9.66 53.08 8.28Q51.75 6.91 50.45 5.61Q49.15 4.31 48.15 2.83Q47.15 1.36 47.15-0.64L47.15-0.64Q47.15-4.24 49.85-6.49L49.85-6.49Q52.40-8.49 55.75-8.52ZM55.55 0.76L55.55 0.76Q57.55-1.39 57.55-2.69L57.55-2.69Q57.55-3.29 57.13-3.77Q56.70-4.24 55.90-4.24Q55.10-4.24 54.38-4.04Q53.65-3.84 53.20-3.74L53.20-3.74Q53.20-1.84 55.55 0.76ZM66.63 12.98Q66.05 11.66 65.80 9.88Q65.55 8.11 65.55 4.91Q65.55 1.71 66.75-3.74L66.75-3.74L64.50-3.74Q63.90-3.74 63.90-4.24L63.90-4.24Q63.90-5.44 64.13-6.22Q64.35-6.99 65.20-7.99L65.20-7.99L66.40-7.99Q67.10-7.99 67.90-8.04L67.90-8.04Q70.30-15.74 72.80-15.74L72.80-15.74Q74.80-15.69 75.60-13.19L75.60-13.19Q75.80-12.49 76.05-11.69L76.05-11.69L74.00-8.09Q77.50-7.99 78.43-7.99Q79.35-7.99 79.43-7.82Q79.50-7.64 79.50-7.29L79.50-7.29Q79.50-6.39 79.08-5.04Q78.65-3.69 78.10-3.74L78.10-3.74L73.10-3.99Q72.05 2.11 72.05 6.11Q72.05 10.11 73.20 10.11L73.20 10.11Q74.15 10.11 76.65 8.53Q79.15 6.96 80.25 5.51Q81.35 4.06 82.05 4.06L82.05 4.06Q82.75 4.06 82.75 5.76Q82.75 7.46 81.55 9.23Q80.35 11.01 78.53 12.48Q76.70 13.96 74.48 14.91Q72.25 15.86 70.60 15.86Q68.95 15.86 68.08 15.08Q67.20 14.31 66.63 12.98ZM86.25 15.86L86.25 15.86Q81.25 15.86 81.25 6.51L81.25 6.51Q81.25 1.41 82.50-2.74L82.50-2.74Q84.45-9.14 86.90-9.14L86.90-9.14Q88.35-9.14 89.20-7.19L89.20-7.19Q89.90-5.69 89.85-4.24L89.85-4.24Q89.85-2.24 88.65 2.81L88.65 2.81Q87.50 7.21 87.50 8.26Q87.50 9.31 88.03 9.71Q88.55 10.11 89.28 10.11Q90.00 10.11 91.10 9.16Q92.20 8.21 93.30 7.08Q94.40 5.96 95.33 5.01Q96.25 4.06 96.60 4.06L96.60 4.06Q97.30 4.06 97.30 5.76L97.30 5.76Q97.30 9.26 93.78 12.58Q90.25 15.91 86.25 15.86ZM88.30-13.19L88.30-13.19Q86.95-15.19 86.95-17.49Q86.95-19.79 87.68-21.32Q88.40-22.84 89.05-23.57Q89.70-24.29 90.55-24.29L90.55-24.29Q91.95-24.29 93.10-22.22Q94.25-20.14 94.25-18.74L94.25-18.74Q94.25-16.14 92.43-14.67Q90.60-13.19 88.30-13.19Z"/></g>
<g transform="matrix(0.2083 0 0 0.2083 103.5619 82.0182)" id="284501">
<g style="" vector-effect="non-scaling-stroke">
		<g transform="matrix(1 0 0 1 -147.0805 38.233)" id="Vector">
<path style="stroke: none; stroke-width: 1; stroke-dasharray: none; stroke-linecap: butt; stroke-dashoffset: 0; stroke-linejoin: miter; stroke-miterlimit: 4; is-custom-font: none; font-file-url: none; fill: rgb(255,255,255); fill-rule: nonzero; opacity: 1;" transform=" translate(-61.9196, -209.733)" d="M 61.9306 221.447 C 60.9135 221.447 59.9381 221.045 59.2189 220.329 C 58.4997 219.613 58.0957 218.642 58.0957 217.63 V 201.547 C 58.1689 200.588 58.6036 199.691 59.3126 199.037 C 60.0217 198.382 60.9528 198.019 61.9195 198.019 C 62.8863 198.019 63.8174 198.382 64.5265 199.037 C 65.2355 199.691 65.6701 200.588 65.7434 201.547 V 217.63 C 65.7434 218.639 65.3424 219.606 64.628 220.322 C 63.9136 221.037 62.9438 221.442 61.9306 221.447 Z" stroke-linecap="round"/>
</g>
		<g transform="matrix(1 0 0 1 -147.0801 12.0195)" id="Vector_2">
<path style="stroke: none; stroke-width: 1; stroke-dasharray: none; stroke-linecap: butt; stroke-dashoffset: 0; stroke-linejoin: miter; stroke-miterlimit: 4; is-custom-font: none; font-file-url: none; fill: rgb(255,255,255); fill-rule: nonzero; opacity: 1;" transform=" translate(-61.9198, -183.5195)" d="M 61.9308 191.87 C 60.9138 191.87 59.9384 191.468 59.2192 190.752 C 58.5 190.036 58.096 189.065 58.096 188.052 V 179.276 C 58.056 178.752 58.1252 178.225 58.2992 177.729 C 58.4732 177.232 58.7483 176.777 59.1073 176.391 C 59.4663 176.006 59.9014 175.698 60.3854 175.488 C 60.8694 175.278 61.3917 175.169 61.9198 175.169 C 62.4479 175.169 62.9703 175.278 63.4543 175.488 C 63.9382 175.698 64.3733 176.006 64.7323 176.391 C 65.0913 176.777 65.3664 177.232 65.5405 177.729 C 65.7145 178.225 65.7837 178.752 65.7437 179.276 V 188.052 C 65.7437 189.061 65.3427 190.029 64.6283 190.744 C 63.9139 191.459 62.9441 191.864 61.9308 191.87 V 191.87 Z" stroke-linecap="round"/>
</g>
		<g transform="matrix(1 0 0 1 -94.527 58.228)" id="Vector_3">
<path style="stroke: none; stroke-width: 1; stroke-dasharray: none; stroke-linecap: butt; stroke-dashoffset: 0; stroke-linejoin: miter; stroke-miterlimit: 4; is-custom-font: none; font-file-url: none; fill: rgb(218,226,234); fill-rule: nonzero; opacity: 0.35;" transform=" translate(-114.473, -229.728)" d="M 196.923 216.048 H 32.0235 C 24.4404 216.048 18.293 222.167 18.293 229.717 V 229.739 C 18.293 237.288 24.4404 243.408 32.0235 243.408 H 196.923 C 204.506 243.408 210.653 237.288 210.653 229.739 V 229.717 C 210.653 222.167 204.506 216.048 196.923 216.048 Z" stroke-linecap="round"/>
</g>
		<g transform="matrix(1 0 0 1 -0.5293 38.4185)" id="Vector_4">
<path style="stroke: none; stroke-width: 1; stroke-dasharray: none; stroke-linecap: butt; stroke-dashoffset: 0; stroke-linejoin: miter; stroke-miterlimit: 4; is-custom-font: none; font-file-url: none; fill: rgb(255,199,66); fill-rule: nonzero; opacity: 1;" transform=" translate(-208.4707, -209.9185)" d="M 408.126 88.158 L 406.914 331.679 L 8.81543 329.989 L 11.0855 88.3116 L 408.126 88.158 Z" stroke-linecap="round"/>
</g>
		<g transform="matrix(1 0 0 1 201.793 46.809)" id="Vector_5">
<path style="stroke: none; stroke-width: 1; stroke-dasharray: none; stroke-linecap: butt; stroke-dashoffset: 0; stroke-linejoin: miter; stroke-miterlimit: 4; is-custom-font: none; font-file-url: none; fill: rgb(39,85,99); fill-rule: nonzero; opacity: 1;" transform=" translate(-410.793, -218.309)" d="M 410.793 232.066 C 409.846 232.066 408.909 231.88 408.035 231.52 C 407.16 231.159 406.366 230.631 405.697 229.965 C 405.028 229.298 404.497 228.507 404.135 227.637 C 403.772 226.766 403.586 225.834 403.586 224.891 V 211.727 C 403.586 209.824 404.345 207.999 405.697 206.654 C 407.048 205.308 408.881 204.552 410.793 204.552 C 412.704 204.552 414.537 205.308 415.889 206.654 C 417.24 207.999 418 209.824 418 211.727 V 224.891 C 418 226.794 417.24 228.619 415.889 229.965 C 414.537 231.31 412.704 232.066 410.793 232.066 V 232.066 Z" stroke-linecap="round"/>
</g>
		<g transform="matrix(1 0 0 1 201.793 17.246)" id="Vector_6">
<path style="stroke: none; stroke-width: 1; stroke-dasharray: none; stroke-linecap: butt; stroke-dashoffset: 0; stroke-linejoin: miter; stroke-miterlimit: 4; is-custom-font: none; font-file-url: none; fill: rgb(39,85,99); fill-rule: nonzero; opacity: 1;" transform=" translate(-410.793, -188.746)" d="M 410.793 196.195 C 409.846 196.195 408.909 196.009 408.035 195.649 C 407.16 195.288 406.366 194.76 405.697 194.093 C 405.028 193.427 404.497 192.636 404.135 191.766 C 403.772 190.895 403.586 189.962 403.586 189.02 V 188.472 C 403.586 186.569 404.345 184.744 405.697 183.398 C 407.048 182.053 408.881 181.297 410.793 181.297 C 412.704 181.297 414.537 182.053 415.889 183.398 C 417.24 184.744 418 186.569 418 188.472 V 189.02 C 418 190.923 417.24 192.748 415.889 194.093 C 414.537 195.439 412.704 196.195 410.793 196.195 V 196.195 Z" stroke-linecap="round"/>
</g>
		<g transform="matrix(1 0 0 1 -0.0093 30.9468)" id="Vector_7">
<path style="stroke: none; stroke-width: 1; stroke-dasharray: none; stroke-linecap: butt; stroke-dashoffset: 0; stroke-linejoin: miter; stroke-miterlimit: 4; is-custom-font: none; font-file-url: none; fill: rgb(239,165,54); fill-rule: nonzero; opacity: 1;" transform=" translate(-208.9907, -202.4468)" d="M 392.787 142.045 C 391.696 140.378 389.985 139.211 388.03 138.8 C 386.076 138.388 384.037 138.766 382.362 139.851 L 209 250.959 L 35.6374 139.785 C 33.954 138.705 31.9088 138.336 29.9517 138.758 C 27.9947 139.179 26.286 140.358 25.2017 142.034 C 24.1175 143.71 23.7463 145.746 24.17 147.694 C 24.5936 149.642 25.7774 151.343 27.4608 152.423 L 203.181 265.111 C 204.033 265.66 204.988 266.031 205.988 266.2 C 206.989 266.37 208.013 266.335 209 266.098 C 209.57 266.23 210.155 266.297 210.741 266.295 C 212.188 266.292 213.604 265.873 214.818 265.089 L 390.539 152.401 C 392.214 151.322 393.391 149.626 393.812 147.685 C 394.234 145.744 393.865 143.716 392.787 142.045 V 142.045 Z" stroke-linecap="round"/>
</g>
		<g transform="matrix(1 0 0 1 -89.6129 15.9301)" id="Vector_8">
<path style="stroke: none; stroke-width: 1; stroke-dasharray: none; stroke-linecap: butt; stroke-dashoffset: 0; stroke-linejoin: miter; stroke-miterlimit: 4; is-custom-font: none; font-file-url: none; fill: rgb(39,85,99); fill-rule: nonzero; opacity: 1;" transform=" translate(-119.3871, -187.4301)" d="M 207.171 250.938 C 205.787 250.941 204.432 250.545 203.27 249.797 L 27.6593 137.131 C 26.8634 136.621 26.1762 135.96 25.6369 135.186 C 25.0976 134.411 24.7168 133.539 24.5162 132.618 C 24.1112 130.758 24.4649 128.814 25.4995 127.214 C 26.5341 125.614 28.1648 124.488 30.033 124.085 C 31.9013 123.682 33.8539 124.034 35.4613 125.064 L 211.182 237.752 C 212.471 238.598 213.453 239.834 213.984 241.278 C 214.514 242.722 214.564 244.297 214.127 245.772 C 213.691 247.246 212.789 248.542 211.557 249.468 C 210.324 250.395 208.825 250.902 207.281 250.916 L 207.171 250.938 Z" stroke-linecap="round"/>
</g>
		<g transform="matrix(1 0 0 1 89.613 15.9301)" id="Vector_9">
<path style="stroke: none; stroke-width: 1; stroke-dasharray: none; stroke-linecap: butt; stroke-dashoffset: 0; stroke-linejoin: miter; stroke-miterlimit: 4; is-custom-font: none; font-file-url: none; fill: rgb(39,85,99); fill-rule: nonzero; opacity: 1;" transform=" translate(-298.6129, -187.4301)" d="M 210.719 250.938 C 209.175 250.924 207.676 250.417 206.443 249.49 C 205.211 248.564 204.31 247.268 203.873 245.794 C 203.436 244.319 203.486 242.744 204.016 241.3 C 204.547 239.856 205.529 238.62 206.818 237.774 L 382.539 125.064 C 384.146 124.034 386.099 123.682 387.967 124.085 C 389.835 124.488 391.466 125.614 392.501 127.214 C 393.535 128.814 393.889 130.758 393.484 132.618 C 393.079 134.478 391.948 136.101 390.341 137.131 L 214.62 249.797 C 213.458 250.545 212.103 250.941 210.719 250.938 V 250.938 Z" stroke-linecap="round"/>
</g>
		<g transform="matrix(1 0 0 1 110.4941 76.2308)" id="Vector_10">
<path style="stroke: none; stroke-width: 1; stroke-dasharray: none; stroke-linecap: butt; stroke-dashoffset: 0; stroke-linejoin: miter; stroke-miterlimit: 4; is-custom-font: none; font-file-url: none; fill: rgb(39,85,99); fill-rule: nonzero; opacity: 1;" transform=" translate(-319.4941, -247.7309)" d="M 375.53 290.823 C 374.146 290.826 372.791 290.429 371.629 289.682 L 259.624 217.848 C 258.017 216.818 256.886 215.194 256.481 213.335 C 256.076 211.475 256.43 209.531 257.464 207.931 C 258.499 206.33 260.13 205.205 261.998 204.802 C 263.866 204.398 265.819 204.751 267.426 205.781 L 379.431 277.615 C 380.72 278.461 381.702 279.697 382.233 281.141 C 382.763 282.585 382.813 284.16 382.376 285.635 C 381.939 287.109 381.038 288.405 379.805 289.331 C 378.573 290.258 377.074 290.765 375.53 290.779 V 290.823 Z" stroke-linecap="round"/>
</g>
		<g transform="matrix(1 0 0 1 -110.3762 76.404)" id="Vector_11">
<path style="stroke: none; stroke-width: 1; stroke-dasharray: none; stroke-linecap: butt; stroke-dashoffset: 0; stroke-linejoin: miter; stroke-miterlimit: 4; is-custom-font: none; font-file-url: none; fill: rgb(39,85,99); fill-rule: nonzero; opacity: 1;" transform=" translate(-98.6238, -247.9039)" d="M 42.8883 290.824 C 41.344 290.81 39.8451 290.302 38.6124 289.376 C 37.3798 288.45 36.4785 287.154 36.0416 285.679 C 35.6046 284.205 35.655 282.629 36.1854 281.185 C 36.7157 279.741 37.6979 278.505 38.9873 277.659 L 150.992 205.781 C 152.592 204.96 154.442 204.765 156.179 205.234 C 157.917 205.702 159.415 206.801 160.379 208.314 C 161.343 209.827 161.704 211.645 161.39 213.409 C 161.077 215.173 160.111 216.757 158.684 217.849 L 46.7672 289.617 C 45.6184 290.383 44.2712 290.803 42.8883 290.824 V 290.824 Z" stroke-linecap="round"/>
</g>
		<g transform="matrix(1 0 0 1 2.7212 151.9365)" id="Vector_12">
<path style="stroke: none; stroke-width: 1; stroke-dasharray: none; stroke-linecap: butt; stroke-dashoffset: 0; stroke-linejoin: miter; stroke-miterlimit: 4; is-custom-font: none; font-file-url: none; fill: rgb(239,165,54); fill-rule: nonzero; opacity: 1;" transform=" translate(-211.7212, -323.4365)" d="M 410.087 315.176 H 13.3555 V 331.697 H 410.087 V 315.176 Z" stroke-linecap="round"/>
</g>
		<g transform="matrix(1 0 0 1 -174.2215 48.115)" id="Vector_13">
<path style="stroke: none; stroke-width: 1; stroke-dasharray: none; stroke-linecap: butt; stroke-dashoffset: 0; stroke-linejoin: miter; stroke-miterlimit: 4; is-custom-font: none; font-file-url: none; fill: rgb(255,255,255); fill-rule: nonzero; opacity: 0.49;" transform=" translate(-34.7785, -219.615)" d="M 34.7786 235.182 C 33.3465 235.182 31.9731 234.616 30.9604 233.608 C 29.9478 232.6 29.3789 231.232 29.3789 229.807 V 209.424 C 29.3789 208.718 29.5186 208.019 29.7899 207.367 C 30.0613 206.714 30.459 206.122 30.9604 205.623 C 31.4618 205.124 32.0571 204.728 32.7122 204.457 C 33.3673 204.187 34.0695 204.048 34.7786 204.048 C 35.4877 204.048 36.1898 204.187 36.8449 204.457 C 37.5001 204.728 38.0953 205.124 38.5967 205.623 C 39.0981 206.122 39.4959 206.714 39.7672 207.367 C 40.0386 208.019 40.1782 208.718 40.1782 209.424 V 229.807 C 40.1782 231.232 39.6093 232.6 38.5967 233.608 C 37.5841 234.616 36.2107 235.182 34.7786 235.182 V 235.182 Z" stroke-linecap="round"/>
</g>
		<g transform="matrix(1 0 0 1 -174.2215 15.3255)" id="Vector_14">
<path style="stroke: none; stroke-width: 1; stroke-dasharray: none; stroke-linecap: butt; stroke-dashoffset: 0; stroke-linejoin: miter; stroke-miterlimit: 4; is-custom-font: none; font-file-url: none; fill: rgb(255,255,255); fill-rule: nonzero; opacity: 0.49;" transform=" translate(-34.7785, -186.8255)" d="M 34.7786 197.686 C 33.3465 197.686 31.9731 197.12 30.9604 196.111 C 29.9478 195.103 29.3789 193.736 29.3789 192.31 V 181.34 C 29.3789 179.914 29.9478 178.547 30.9604 177.539 C 31.9731 176.531 33.3465 175.965 34.7786 175.965 C 36.2107 175.965 37.5841 176.531 38.5967 177.539 C 39.6093 178.547 40.1782 179.914 40.1782 181.34 V 192.31 C 40.1782 193.736 39.6093 195.103 38.5967 196.111 C 37.5841 197.12 36.2107 197.686 34.7786 197.686 V 197.686 Z" stroke-linecap="round"/>
</g>
		<g transform="matrix(1 0 0 1 -174.288 82.795)" id="Vector_15">
<path style="stroke: none; stroke-width: 1; stroke-dasharray: none; stroke-linecap: butt; stroke-dashoffset: 0; stroke-linejoin: miter; stroke-miterlimit: 4; is-custom-font: none; font-file-url: none; fill: rgb(255,255,255); fill-rule: nonzero; opacity: 0.7;" transform=" translate(-34.712, -254.295)" d="M 34.712 260.746 C 38.2906 260.746 41.1916 257.858 41.1916 254.295 C 41.1916 250.732 38.2906 247.844 34.712 247.844 C 31.1334 247.844 28.2324 250.732 28.2324 254.295 C 28.2324 257.858 31.1334 260.746 34.712 260.746 Z" stroke-linecap="round"/>
</g>
		<g transform="matrix(1 0 0 1 -3.2614 -70.4325)" id="Vector_16">
<path style="stroke: none; stroke-width: 1; stroke-dasharray: none; stroke-linecap: butt; stroke-dashoffset: 0; stroke-linejoin: miter; stroke-miterlimit: 4; is-custom-font: none; font-file-url: none; fill: rgb(247,234,208); fill-rule: nonzero; opacity: 0.5;" transform=" translate(-205.7386, -101.0675)" d="M 402.11 91.688 H 9.36719 V 110.447 H 402.11 V 91.688 Z" stroke-linecap="round"/>
</g>
		<g transform="matrix(1 0 0 1 -0.055 39.4697)" id="Vector_17">
<path style="stroke: none; stroke-width: 1; stroke-dasharray: none; stroke-linecap: butt; stroke-dashoffset: 0; stroke-linejoin: miter; stroke-miterlimit: 4; is-custom-font: none; font-file-url: none; fill: rgb(39,85,99); fill-rule: nonzero; opacity: 1;" transform=" translate(-208.945, -210.9697)" d="M 148.965 342.713 H 23.3398 C 17.1474 342.696 11.2143 340.236 6.83981 335.873 C 2.46527 331.51 0.00580616 325.598 0 319.434 V 102.484 C 0.00583529 96.3113 2.47136 90.3935 6.85541 86.0291 C 11.2395 81.6646 17.1839 79.2102 23.3838 79.2043 H 394.506 C 400.706 79.2102 406.65 81.6646 411.034 86.0291 C 415.418 90.3935 417.884 96.3113 417.89 102.484 V 159.529 C 417.89 161.432 417.13 163.257 415.779 164.603 C 414.427 165.948 412.594 166.704 410.683 166.704 C 408.771 166.704 406.938 165.948 405.587 164.603 C 404.235 163.257 403.476 161.432 403.476 159.529 V 102.484 C 403.47 100.117 402.523 97.8489 400.842 96.1755 C 399.161 94.5021 396.883 93.5594 394.506 93.5536 H 23.3838 C 21.0066 93.5594 18.7284 94.5021 17.0475 96.1755 C 15.3665 97.8489 14.4196 100.117 14.4138 102.484 V 319.456 C 14.4196 321.822 15.3665 324.09 17.0475 325.764 C 18.7284 327.437 21.0066 328.38 23.3838 328.386 H 149.009 C 150.92 328.386 152.753 329.142 154.105 330.487 C 155.456 331.833 156.216 333.657 156.216 335.56 C 156.216 337.463 155.456 339.288 154.105 340.634 C 152.753 341.979 150.92 342.735 149.009 342.735 L 148.965 342.713 Z" stroke-linecap="round"/>
</g>
		<g transform="matrix(1 0 0 1 118.1095 124.493)" id="Vector_18">
<path style="stroke: none; stroke-width: 1; stroke-dasharray: none; stroke-linecap: butt; stroke-dashoffset: 0; stroke-linejoin: miter; stroke-miterlimit: 4; is-custom-font: none; font-file-url: none; fill: rgb(39,85,99); fill-rule: nonzero; opacity: 1;" transform=" translate(-327.1095, -295.993)" d="M 394.506 342.716 H 243.536 C 241.625 342.716 239.791 341.96 238.44 340.615 C 237.088 339.269 236.329 337.444 236.329 335.541 C 236.329 333.638 237.088 331.814 238.44 330.468 C 239.791 329.123 241.625 328.367 243.536 328.367 H 394.506 C 396.883 328.361 399.161 327.418 400.842 325.745 C 402.523 324.071 403.47 321.803 403.476 319.437 V 256.445 C 403.476 254.542 404.235 252.717 405.587 251.372 C 406.939 250.026 408.772 249.27 410.683 249.27 C 412.594 249.27 414.427 250.026 415.779 251.372 C 417.131 252.717 417.89 254.542 417.89 256.445 V 319.459 C 417.878 325.627 415.41 331.539 411.027 335.899 C 406.643 340.259 400.702 342.71 394.506 342.716 V 342.716 Z" stroke-linecap="round"/>
</g>
		<g transform="matrix(1 0 0 1 -1.146 -61.6424)" id="Vector_19">
<path style="stroke: none; stroke-width: 1; stroke-dasharray: none; stroke-linecap: butt; stroke-dashoffset: 0; stroke-linejoin: miter; stroke-miterlimit: 4; is-custom-font: none; font-file-url: none; fill: rgb(144,129,82); fill-rule: nonzero; opacity: 1;" transform=" translate(-207.854, -109.8576)" d="M 207.854 191.214 C 252.915 191.214 289.444 154.789 289.444 109.858 C 289.444 64.9258 252.915 28.5013 207.854 28.5013 C 162.793 28.5013 126.264 64.9258 126.264 109.858 C 126.264 154.789 162.793 191.214 207.854 191.214 Z" stroke-linecap="round"/>
</g>
		<g transform="matrix(1 0 0 1 -0.485 -82.0043)" id="Vector_20">
<path style="stroke: none; stroke-width: 1; stroke-dasharray: none; stroke-linecap: butt; stroke-dashoffset: 0; stroke-linejoin: miter; stroke-miterlimit: 4; is-custom-font: none; font-file-url: none; fill: rgb(255,255,255); fill-rule: nonzero; opacity: 1;" transform=" translate(-208.515, -89.4957)" d="M 208.515 170.852 C 253.649 170.852 290.237 134.428 290.237 89.4957 C 290.237 44.5639 253.649 8.13937 208.515 8.13937 C 163.381 8.13937 126.793 44.5639 126.793 89.4957 C 126.793 134.428 163.381 170.852 208.515 170.852 Z" stroke-linecap="round"/>
</g>
		<g transform="matrix(1 0 0 1 0.8602 -55.0683)" id="Vector_21">
<path style="stroke: none; stroke-width: 1; stroke-dasharray: none; stroke-linecap: butt; stroke-dashoffset: 0; stroke-linejoin: miter; stroke-miterlimit: 4; is-custom-font: none; font-file-url: none; fill: rgb(217,240,255); fill-rule: nonzero; opacity: 0.5;" transform=" translate(-209.8602, -116.4317)" d="M 291.582 88.8795 C 291.523 100.636 288.906 112.24 283.91 122.892 C 278.914 133.545 271.658 142.993 262.642 150.586 C 253.626 158.179 243.064 163.736 231.684 166.876 C 220.303 170.015 208.375 170.662 196.719 168.771 C 185.063 166.881 173.958 162.498 164.167 155.924 C 154.376 149.351 146.133 140.743 140.004 130.694 C 133.876 120.644 130.008 109.392 128.667 97.7115 C 127.326 86.0311 128.544 74.2001 132.237 63.0333 C 138.849 100.64 173.693 134.472 209.75 134.472 C 245.806 134.472 278.711 107.266 287.262 63.0333 C 290.103 71.3579 291.562 80.0877 291.582 88.8795 V 88.8795 Z" stroke-linecap="round"/>
</g>
		<g transform="matrix(1 0 0 1 0.1875 -48.4833)" id="Vector_22">
<path style="stroke: none; stroke-width: 1; stroke-dasharray: none; stroke-linecap: butt; stroke-dashoffset: 0; stroke-linejoin: miter; stroke-miterlimit: 4; is-custom-font: none; font-file-url: none; fill: rgb(217,240,255); fill-rule: nonzero; opacity: 1;" transform=" translate(-209.1875, -123.0168)" d="M 290.921 87.6319 C 290.921 109.212 282.309 129.908 266.981 145.167 C 251.654 160.427 230.864 168.999 209.187 168.999 C 187.51 168.999 166.721 160.427 151.393 145.167 C 136.065 129.908 127.454 109.212 127.454 87.6319 C 127.453 84.0884 127.681 80.5486 128.137 77.0345 C 130.736 96.5995 140.388 114.558 155.296 127.566 C 170.204 140.574 189.352 147.746 209.176 147.746 C 229 147.746 248.149 140.574 263.057 127.566 C 277.965 114.558 287.617 96.5995 290.215 77.0345 C 290.679 80.5482 290.915 84.088 290.921 87.6319 Z" stroke-linecap="round"/>
</g>
		<g transform="matrix(1 0 0 1 0.0658 -82.9482)" id="Vector_23">
<path style="stroke: none; stroke-width: 1; stroke-dasharray: none; stroke-linecap: butt; stroke-dashoffset: 0; stroke-linejoin: miter; stroke-miterlimit: 4; is-custom-font: none; font-file-url: none; fill: rgb(39,85,99); fill-rule: nonzero; opacity: 1;" transform=" translate(-209.0659, -88.5518)" d="M 209.066 177.083 C 191.477 177.083 174.284 171.89 159.66 162.162 C 145.035 152.435 133.637 138.608 126.906 122.431 C 120.175 106.254 118.414 88.4534 121.846 71.2801 C 125.277 54.1068 133.747 38.332 146.183 25.9508 C 158.62 13.5695 174.466 5.13772 191.717 1.72174 C 208.967 -1.69425 226.848 0.0589584 243.098 6.75966 C 259.347 13.4604 273.236 24.8076 283.008 39.3664 C 292.779 53.9253 297.995 71.0419 297.995 88.5516 C 297.966 112.023 288.587 134.524 271.916 151.12 C 255.245 167.717 232.642 177.054 209.066 177.083 V 177.083 Z M 209.066 14.348 C 194.328 14.348 179.921 18.6986 167.667 26.8498 C 155.413 35.001 145.863 46.5866 140.223 60.1416 C 134.583 73.6965 133.107 88.612 135.982 103.002 C 138.858 117.392 145.954 130.61 156.376 140.984 C 166.797 151.359 180.074 158.424 194.529 161.286 C 208.983 164.148 223.966 162.679 237.582 157.065 C 251.198 151.45 262.835 141.942 271.023 129.743 C 279.211 117.544 283.581 103.201 283.581 88.5297 C 283.558 68.8626 275.7 50.0077 261.73 36.1009 C 247.761 22.1942 228.821 14.3712 209.066 14.348 V 14.348 Z" stroke-linecap="round"/>
</g>
		<g transform="matrix(1 0 0 1 1.9709 -82.6613)" id="Vector_24">
<path style="stroke: none; stroke-width: 1; stroke-dasharray: none; stroke-linecap: butt; stroke-dashoffset: 0; stroke-linejoin: miter; stroke-miterlimit: 4; is-custom-font: none; font-file-url: none; fill: rgb(39,85,99); fill-rule: nonzero; opacity: 1;" transform=" translate(-210.9709, -88.8387)" d="M 191.435 88.8805 C 191.392 87.6096 191.771 86.3601 192.515 85.3261 C 192.831 84.8754 193.253 84.5094 193.745 84.2606 C 194.238 84.0118 194.784 83.8879 195.336 83.8999 H 205.738 V 73.3025 C 205.758 72.7386 205.91 72.187 206.181 71.6918 C 206.453 71.1965 206.837 70.7714 207.303 70.4503 C 208.344 69.6157 209.647 69.1729 210.984 69.1996 C 212.331 69.1477 213.649 69.5931 214.686 70.4503 C 215.129 70.7864 215.489 71.2173 215.741 71.7111 C 215.993 72.2049 216.129 72.7489 216.141 73.3025 V 83.8999 H 226.433 C 226.984 83.9191 227.524 84.0611 228.012 84.3155 C 228.5 84.57 228.925 84.9303 229.254 85.37 C 230.093 86.3465 230.54 87.5963 230.511 88.8805 C 230.561 90.1602 230.128 91.4123 229.299 92.391 C 228.954 92.8191 228.518 93.1653 228.023 93.4044 C 227.527 93.6435 226.984 93.7695 226.433 93.7733 H 216.119 V 104.48 C 216.133 105.04 216.012 105.595 215.767 106.099 C 215.521 106.603 215.159 107.041 214.708 107.377 C 213.621 108.156 212.3 108.543 210.962 108.474 C 209.626 108.523 208.311 108.138 207.215 107.377 C 206.743 107.056 206.359 106.623 206.097 106.117 C 205.836 105.612 205.705 105.049 205.716 104.48 V 93.7733 H 195.314 C 194.77 93.7897 194.231 93.6768 193.74 93.4441 C 193.25 93.2113 192.822 92.8653 192.493 92.4349 C 191.74 91.4066 191.366 90.1512 191.435 88.8805 V 88.8805 Z" stroke-linecap="round"/>
</g>
		<g transform="matrix(1 0 0 1 -24.353 164.3225)" id="Vector_25">
<path style="stroke: none; stroke-width: 1; stroke-dasharray: none; stroke-linecap: butt; stroke-dashoffset: 0; stroke-linejoin: miter; stroke-miterlimit: 4; is-custom-font: none; font-file-url: none; fill: rgb(39,85,99); fill-rule: nonzero; opacity: 1;" transform=" translate(-184.647, -335.8225)" d="M 191.259 342.997 H 178.035 C 176.124 342.997 174.291 342.241 172.939 340.896 C 171.587 339.55 170.828 337.725 170.828 335.823 C 170.828 333.92 171.587 332.095 172.939 330.749 C 174.291 329.404 176.124 328.648 178.035 328.648 H 191.259 C 193.17 328.648 195.003 329.404 196.355 330.749 C 197.706 332.095 198.466 333.92 198.466 335.823 C 198.466 337.725 197.706 339.55 196.355 340.896 C 195.003 342.241 193.17 342.997 191.259 342.997 V 342.997 Z" stroke-linecap="round"/>
</g>
		<g transform="matrix(1 0 0 1 5.4115 164.3225)" id="Vector_26">
<path style="stroke: none; stroke-width: 1; stroke-dasharray: none; stroke-linecap: butt; stroke-dashoffset: 0; stroke-linejoin: miter; stroke-miterlimit: 4; is-custom-font: none; font-file-url: none; fill: rgb(39,85,99); fill-rule: nonzero; opacity: 1;" transform=" translate(-214.4115, -335.8225)" d="M 214.687 342.997 H 214.136 C 212.224 342.997 210.391 342.241 209.04 340.896 C 207.688 339.55 206.929 337.725 206.929 335.823 C 206.929 333.92 207.688 332.095 209.04 330.749 C 210.391 329.404 212.224 328.648 214.136 328.648 H 214.687 C 216.598 328.648 218.431 329.404 219.783 330.749 C 221.134 332.095 221.894 333.92 221.894 335.823 C 221.894 337.725 221.134 339.55 219.783 340.896 C 218.431 342.241 216.598 342.997 214.687 342.997 V 342.997 Z" stroke-linecap="round"/>
</g>
</g>
</g>
</svg>