<svg width="378.902" height="45.604" viewBox="0 0 378.902 45.604" xmlns="http://www.w3.org/2000/svg"><g id="svgGroup" stroke-linecap="round" fill-rule="evenodd" font-size="9pt" stroke="#000" stroke-width="0.25mm" fill="black" style="stroke:#000;stroke-width:0.25mm;fill:black"><path d="M 20.202 24.304 L 8.602 24.304 A 16.192 16.192 0 0 1 5.463 24.028 Q 0.509 23.044 0.049 18.559 A 9.36 9.36 0 0 1 0.002 17.604 L 0.002 8.704 A 8.339 8.339 0 0 1 0.477 5.767 Q 1.963 1.804 8.102 1.804 L 28.902 1.804 A 11.409 11.409 0 0 1 30.248 1.877 Q 31.6 2.038 32.263 2.562 A 1.624 1.624 0 0 1 32.902 3.904 A 1.373 1.373 0 0 1 32.108 5.15 Q 31.437 5.527 30.197 5.647 A 13.464 13.464 0 0 1 28.902 5.704 L 12.602 5.704 A 7.475 7.475 0 0 0 10.318 6.023 Q 7.886 6.803 7.237 9.495 A 9.46 9.46 0 0 0 7.002 11.704 L 7.002 14.204 A 10.5 10.5 0 0 0 7.246 16.582 Q 8.003 19.825 11.1 20.386 A 7.855 7.855 0 0 0 12.502 20.504 L 24.302 20.504 A 16.192 16.192 0 0 1 27.44 20.781 Q 32.394 21.764 32.854 26.249 A 9.36 9.36 0 0 1 32.902 27.204 L 32.902 38.004 Q 32.902 44.092 26.048 44.648 A 17.912 17.912 0 0 1 24.602 44.704 L 3.902 44.704 A 12.017 12.017 0 0 1 2.601 44.64 Q 1.308 44.499 0.658 44.043 A 1.438 1.438 0 0 1 0.002 42.804 A 1.373 1.373 0 0 1 0.795 41.558 Q 1.466 41.182 2.706 41.061 A 13.464 13.464 0 0 1 4.002 41.004 L 20.502 41.004 A 7.957 7.957 0 0 0 22.606 40.751 Q 25.013 40.089 25.662 37.701 A 7.626 7.626 0 0 0 25.902 35.704 L 25.902 31.004 A 11.482 11.482 0 0 0 25.653 28.496 Q 24.858 24.961 21.527 24.407 A 8.083 8.083 0 0 0 20.202 24.304 Z M 305.902 26.004 L 309.202 18.504 A 25.348 25.348 0 0 1 310.209 16.57 Q 311.942 13.594 313.575 13.249 A 2.06 2.06 0 0 1 314.002 13.204 A 2.265 2.265 0 0 1 314.802 13.339 Q 315.373 13.553 315.741 14.108 A 2.554 2.554 0 0 1 315.802 14.204 A 4.129 4.129 0 0 1 316.351 15.677 A 3.92 3.92 0 0 1 316.402 16.304 Q 316.402 17.404 315.902 19.404 L 312.002 26.904 A 13.358 13.358 0 0 0 311.27 28.648 Q 310.948 29.615 310.847 30.508 A 7.105 7.105 0 0 0 310.802 31.304 Q 310.702 32.404 311.052 33.354 Q 311.402 34.304 312.002 35.304 L 315.502 41.604 Q 316.102 42.904 316.102 43.404 A 1.848 1.848 0 0 1 315.573 44.702 A 2.693 2.693 0 0 1 315.302 44.954 A 2.869 2.869 0 0 1 313.919 45.557 A 3.899 3.899 0 0 1 313.302 45.604 A 3.318 3.318 0 0 1 311.547 45.07 Q 310.476 44.412 309.432 42.94 A 14.031 14.031 0 0 1 309.202 42.604 L 305.602 35.804 A 18.811 18.811 0 0 0 305.033 35.125 Q 303.87 33.804 303.302 33.804 A 0.5 0.5 0 0 0 302.861 34.079 Q 302.626 34.467 302.604 35.403 A 8.481 8.481 0 0 0 302.602 35.604 L 302.602 39.504 A 13.885 13.885 0 0 1 302.478 41.441 Q 302.164 43.663 301.043 44.573 A 2.98 2.98 0 0 1 299.102 45.204 Q 295.83 45.204 295.451 41.453 A 10.444 10.444 0 0 1 295.402 40.404 L 295.402 4.504 A 10.394 10.394 0 0 1 295.468 3.291 Q 295.624 1.963 296.152 1.154 A 2.266 2.266 0 0 1 297.238 0.292 Q 297.95 0.004 299.002 0.004 A 3.013 3.013 0 0 1 301.833 1.619 Q 302.495 2.809 302.596 4.874 A 14.463 14.463 0 0 1 302.602 5.004 L 302.602 24.104 Q 302.602 27.275 303.776 27.728 A 1.17 1.17 0 0 0 304.202 27.804 A 0.524 0.524 0 0 0 304.469 27.709 Q 304.961 27.4 305.839 26.098 A 21.72 21.72 0 0 0 305.902 26.004 Z M 167.902 1.804 L 193.402 1.804 A 10.215 10.215 0 0 1 194.614 1.87 Q 197.002 2.157 197.002 3.704 Q 197.002 5.556 193.83 5.693 A 12.228 12.228 0 0 1 193.302 5.704 L 189.802 5.704 Q 184.948 5.704 184.227 9.474 A 7.621 7.621 0 0 0 184.102 10.904 L 184.102 40.104 Q 184.102 45.136 180.824 45.299 A 4.492 4.492 0 0 1 180.602 45.304 Q 177.31 45.304 177.205 40.431 A 15.158 15.158 0 0 1 177.202 40.104 L 177.202 10.904 A 6.769 6.769 0 0 0 176.891 8.76 Q 175.871 5.704 171.502 5.704 L 168.202 5.704 A 10.812 10.812 0 0 1 166.922 5.635 Q 165.63 5.48 165.001 4.977 A 1.548 1.548 0 0 1 164.402 3.704 Q 164.402 1.804 167.902 1.804 Z M 49.802 23.904 L 49.802 35.204 A 9.857 9.857 0 0 0 50.046 37.506 Q 50.789 40.589 53.787 41.169 A 7.968 7.968 0 0 0 55.302 41.304 A 12.069 12.069 0 0 0 56.27 41.268 Q 57.815 41.143 58.374 40.583 A 1.221 1.221 0 0 0 58.402 40.554 Q 59.102 39.804 59.352 38.854 A 4.754 4.754 0 0 1 59.781 37.764 A 4.137 4.137 0 0 1 60.152 37.204 A 1.311 1.311 0 0 1 60.629 36.844 Q 61.332 36.508 62.772 36.504 A 12.529 12.529 0 0 1 62.802 36.504 A 4.16 4.16 0 0 1 64.371 36.777 Q 66.174 37.508 66.376 40.195 A 9.471 9.471 0 0 1 66.402 40.904 Q 66.402 42.784 64.879 43.662 A 4.132 4.132 0 0 1 64.502 43.854 A 7.639 7.639 0 0 1 63.128 44.302 Q 61.414 44.704 58.802 44.704 L 50.102 44.704 Q 42.502 44.704 42.502 37.804 L 42.502 20.304 A 8.618 8.618 0 0 1 43.038 17.409 Q 44.504 13.664 49.93 13.511 A 16.663 16.663 0 0 1 50.402 13.504 L 58.802 13.504 Q 62.196 13.504 64.074 14.342 A 5.594 5.594 0 0 1 64.502 14.554 A 5.546 5.546 0 0 1 65.355 15.126 Q 65.788 15.484 66.042 15.885 A 2.238 2.238 0 0 1 66.402 17.104 Q 66.402 20.753 63.684 21.232 A 5.09 5.09 0 0 1 62.802 21.304 A 11.618 11.618 0 0 1 61.916 21.273 Q 60.566 21.169 60.068 20.72 A 1.025 1.025 0 0 1 60.002 20.654 Q 59.402 20.004 59.052 19.154 A 5.755 5.755 0 0 0 58.39 17.959 A 5.205 5.205 0 0 0 58.152 17.654 Q 57.618 17.024 55.627 17.005 A 13.12 13.12 0 0 0 55.502 17.004 Q 52.402 17.004 51.102 18.754 A 5.715 5.715 0 0 0 50.272 20.411 Q 50.022 21.18 49.905 22.118 A 14.447 14.447 0 0 0 49.802 23.904 Z M 269.002 23.904 L 269.002 35.204 A 9.857 9.857 0 0 0 269.246 37.506 Q 269.989 40.589 272.987 41.169 A 7.968 7.968 0 0 0 274.502 41.304 A 12.069 12.069 0 0 0 275.47 41.268 Q 277.015 41.143 277.574 40.583 A 1.221 1.221 0 0 0 277.602 40.554 Q 278.302 39.804 278.552 38.854 A 4.754 4.754 0 0 1 278.981 37.764 A 4.137 4.137 0 0 1 279.352 37.204 A 1.311 1.311 0 0 1 279.829 36.844 Q 280.532 36.508 281.972 36.504 A 12.529 12.529 0 0 1 282.002 36.504 A 4.16 4.16 0 0 1 283.571 36.777 Q 285.374 37.508 285.576 40.195 A 9.471 9.471 0 0 1 285.602 40.904 Q 285.602 42.784 284.079 43.662 A 4.132 4.132 0 0 1 283.702 43.854 A 7.639 7.639 0 0 1 282.328 44.302 Q 280.614 44.704 278.002 44.704 L 269.302 44.704 Q 261.702 44.704 261.702 37.804 L 261.702 20.304 A 8.618 8.618 0 0 1 262.238 17.409 Q 263.704 13.664 269.13 13.511 A 16.663 16.663 0 0 1 269.602 13.504 L 278.002 13.504 Q 281.396 13.504 283.274 14.342 A 5.594 5.594 0 0 1 283.702 14.554 A 5.546 5.546 0 0 1 284.555 15.126 Q 284.988 15.484 285.242 15.885 A 2.238 2.238 0 0 1 285.602 17.104 Q 285.602 20.753 282.884 21.232 A 5.09 5.09 0 0 1 282.002 21.304 A 11.618 11.618 0 0 1 281.116 21.273 Q 279.766 21.169 279.268 20.72 A 1.025 1.025 0 0 1 279.202 20.654 Q 278.602 20.004 278.252 19.154 A 5.755 5.755 0 0 0 277.59 17.959 A 5.205 5.205 0 0 0 277.352 17.654 Q 276.818 17.024 274.827 17.005 A 13.12 13.12 0 0 0 274.702 17.004 Q 271.602 17.004 270.302 18.754 A 5.715 5.715 0 0 0 269.472 20.411 Q 269.222 21.18 269.105 22.118 A 14.447 14.447 0 0 0 269.002 23.904 Z M 144.502 41.304 L 154.602 41.304 Q 156.804 41.304 157.73 41.909 A 1.36 1.36 0 0 1 158.402 43.104 A 1.215 1.215 0 0 1 157.7 44.205 Q 156.812 44.704 154.802 44.704 L 142.302 44.704 A 12.058 12.058 0 0 1 139.286 44.361 Q 135.411 43.357 134.675 39.417 A 10.962 10.962 0 0 1 134.502 37.404 L 134.502 15.304 A 9.244 9.244 0 0 1 134.941 12.325 Q 136.377 8.104 142.502 8.104 L 150.802 8.104 Q 154.502 8.104 156.452 9.654 Q 158.402 11.204 158.402 14.104 L 158.402 25.604 Q 158.402 29.304 156.452 30.904 A 6.333 6.333 0 0 1 154.368 32.012 Q 152.854 32.504 150.802 32.504 L 144.702 32.504 A 2.747 2.747 0 0 0 143.128 32.938 Q 142.054 33.664 141.789 35.602 A 10.388 10.388 0 0 0 141.702 37.004 A 9.887 9.887 0 0 0 141.8 38.466 Q 142.079 40.32 143.146 40.963 A 2.578 2.578 0 0 0 144.502 41.304 Z M 335.702 41.304 L 345.802 41.304 Q 348.004 41.304 348.93 41.909 A 1.36 1.36 0 0 1 349.602 43.104 A 1.215 1.215 0 0 1 348.9 44.205 Q 348.012 44.704 346.002 44.704 L 333.502 44.704 A 12.058 12.058 0 0 1 330.486 44.361 Q 326.611 43.357 325.875 39.417 A 10.962 10.962 0 0 1 325.702 37.404 L 325.702 15.304 A 9.244 9.244 0 0 1 326.141 12.325 Q 327.577 8.104 333.702 8.104 L 342.002 8.104 Q 345.702 8.104 347.652 9.654 Q 349.602 11.204 349.602 14.104 L 349.602 25.604 Q 349.602 29.304 347.652 30.904 A 6.333 6.333 0 0 1 345.568 32.012 Q 344.054 32.504 342.002 32.504 L 335.902 32.504 A 2.747 2.747 0 0 0 334.328 32.938 Q 333.254 33.664 332.989 35.602 A 10.388 10.388 0 0 0 332.902 37.004 A 9.887 9.887 0 0 0 333 38.466 Q 333.279 40.32 334.346 40.963 A 2.578 2.578 0 0 0 335.702 41.304 Z M 241.702 11.604 L 233.202 11.604 Q 230.999 11.604 230.073 11 A 1.36 1.36 0 0 1 229.402 9.804 A 1.326 1.326 0 0 1 230.193 8.584 Q 231.089 8.104 233.002 8.104 L 244.902 8.104 Q 250.803 8.104 251.998 12.937 A 11.551 11.551 0 0 1 252.302 15.704 L 252.302 37.504 Q 252.302 43.246 247.596 44.409 A 11.255 11.255 0 0 1 244.902 44.704 L 236.502 44.704 A 16.382 16.382 0 0 1 233.596 44.47 Q 228.402 43.529 228.402 38.804 L 228.402 25.804 A 5.32 5.32 0 0 1 228.812 23.685 A 5.053 5.053 0 0 1 230.302 21.754 A 5.857 5.857 0 0 1 232.085 20.787 Q 233.696 20.222 236.049 20.205 A 20.339 20.339 0 0 1 236.202 20.204 L 241.502 20.204 A 5.183 5.183 0 0 0 242.926 20.026 Q 244.524 19.568 244.948 17.937 A 5.304 5.304 0 0 0 245.102 16.604 L 245.102 15.604 A 6.86 6.86 0 0 0 244.953 14.107 Q 244.391 11.604 241.702 11.604 Z M 99.902 20.604 L 99.902 37.804 Q 99.902 41.504 97.952 43.104 A 6.333 6.333 0 0 1 95.868 44.212 Q 94.354 44.704 92.302 44.704 L 84.002 44.704 A 13.492 13.492 0 0 1 80.984 44.398 Q 76.002 43.25 76.002 37.804 L 76.002 20.504 A 8.715 8.715 0 0 1 76.267 18.292 A 6.237 6.237 0 0 1 77.902 15.404 A 5.822 5.822 0 0 1 80.099 14.056 Q 81.017 13.729 82.15 13.595 A 14.166 14.166 0 0 1 83.802 13.504 L 92.302 13.504 Q 94.97 13.504 96.728 14.493 A 5.853 5.853 0 0 1 97.952 15.404 A 6.278 6.278 0 0 1 99.711 18.678 A 9.243 9.243 0 0 1 99.902 20.604 Z M 125.302 17.004 L 122.202 17.004 Q 116.702 17.004 116.702 22.204 L 116.702 39.904 Q 116.702 44.936 113.424 45.099 A 4.492 4.492 0 0 1 113.202 45.104 Q 109.402 45.104 109.402 40.504 L 109.402 20.404 A 8.339 8.339 0 0 1 109.877 17.467 Q 111.363 13.504 117.502 13.504 L 125.402 13.504 Q 127.604 13.504 128.53 14.109 A 1.36 1.36 0 0 1 129.202 15.304 Q 129.202 17.002 125.313 17.004 A 17.044 17.044 0 0 1 125.302 17.004 Z M 219.202 17.004 L 216.102 17.004 Q 210.602 17.004 210.602 22.204 L 210.602 39.904 Q 210.602 44.936 207.324 45.099 A 4.492 4.492 0 0 1 207.102 45.104 Q 203.302 45.104 203.302 40.504 L 203.302 20.404 A 8.339 8.339 0 0 1 203.777 17.467 Q 205.263 13.504 211.402 13.504 L 219.302 13.504 Q 221.504 13.504 222.43 14.109 A 1.36 1.36 0 0 1 223.102 15.304 Q 223.102 17.002 219.213 17.004 A 17.044 17.044 0 0 1 219.202 17.004 Z M 375.002 17.004 L 371.902 17.004 Q 366.402 17.004 366.402 22.204 L 366.402 39.904 Q 366.402 44.936 363.124 45.099 A 4.492 4.492 0 0 1 362.902 45.104 Q 359.102 45.104 359.102 40.504 L 359.102 20.404 A 8.339 8.339 0 0 1 359.577 17.467 Q 361.063 13.504 367.202 13.504 L 375.102 13.504 Q 377.304 13.504 378.23 14.109 A 1.36 1.36 0 0 1 378.902 15.304 Q 378.902 17.002 375.013 17.004 A 17.044 17.044 0 0 1 375.002 17.004 Z M 92.702 35.204 L 92.702 23.004 A 12.278 12.278 0 0 0 92.541 20.925 Q 91.9 17.212 88.69 17.107 A 5.781 5.781 0 0 0 88.502 17.104 L 87.202 17.104 A 3.24 3.24 0 0 0 84.102 19.018 Q 83.302 20.604 83.302 23.504 L 83.302 35.304 A 13.314 13.314 0 0 0 83.454 37.419 Q 84.054 41.126 87.011 41.296 A 5.05 5.05 0 0 0 87.302 41.304 L 88.802 41.304 A 3.261 3.261 0 0 0 91.914 39.454 Q 92.638 38.066 92.696 35.638 A 18.068 18.068 0 0 0 92.702 35.204 Z M 235.502 28.504 L 235.502 36.104 Q 235.502 40.527 239.047 41.188 A 7.403 7.403 0 0 0 240.402 41.304 A 6.058 6.058 0 0 0 242.346 41.019 Q 245.102 40.086 245.102 36.104 L 245.102 28.504 Q 245.102 23.604 240.402 23.604 A 7.054 7.054 0 0 0 238.462 23.847 Q 235.502 24.695 235.502 28.504 Z M 141.702 16.504 L 141.702 24.004 A 7.378 7.378 0 0 0 141.936 25.952 Q 142.773 29.004 146.602 29.004 A 6.043 6.043 0 0 0 148.491 28.734 Q 150.439 28.093 150.987 25.93 A 7.867 7.867 0 0 0 151.202 24.005 L 151.202 16.504 A 7.879 7.879 0 0 0 150.989 14.587 Q 150.213 11.504 146.602 11.504 A 6.902 6.902 0 0 0 144.648 11.757 Q 142.484 12.396 141.909 14.657 A 7.515 7.515 0 0 0 141.702 16.504 Z M 332.902 16.504 L 332.902 24.004 A 7.378 7.378 0 0 0 333.136 25.952 Q 333.973 29.004 337.802 29.004 A 6.043 6.043 0 0 0 339.691 28.734 Q 341.639 28.093 342.187 25.93 A 7.867 7.867 0 0 0 342.402 24.005 L 342.402 16.504 A 7.879 7.879 0 0 0 342.189 14.587 Q 341.413 11.504 337.802 11.504 A 6.902 6.902 0 0 0 335.848 11.757 Q 333.684 12.396 333.109 14.657 A 7.515 7.515 0 0 0 332.902 16.504 Z" vector-effect="non-scaling-stroke"/></g></svg>